M48
; DRILL file {KiCad 8.0.2} date 2024-06-05T21:35:57-0400
; FORMAT={-:-/ absolute / inch / decimal}
; #@! TF.CreationDate,2024-06-05T21:35:57-04:00
; #@! TF.GenerationSoftware,Kicad,Pcbnew,8.0.2
; #@! TF.FileFunction,Plated,1,2,PTH
FMAT,2
INCH
; #@! TA.AperFunction,Plated,PTH,ViaDrill
T1C0.0118
; #@! TA.AperFunction,Plated,PTH,ComponentDrill
T2C0.0157
; #@! TA.AperFunction,Plated,PTH,ViaDrill
T3C0.0295
; #@! TA.AperFunction,Plated,PTH,ComponentDrill
T4C0.0315
; #@! TA.AperFunction,Plated,PTH,ComponentDrill
T5C0.0394
; #@! TA.AperFunction,Plated,PTH,ComponentDrill
T6C0.0472
; #@! TA.AperFunction,Plated,PTH,ComponentDrill
T7C0.0512
; #@! TA.AperFunction,Plated,PTH,ComponentDrill
T8C0.1244
; #@! TA.AperFunction,Plated,PTH,ComponentDrill
T9C0.1433
%
G90
G05
T1
X3.9469Y-3.5236
X4.0256Y-3.6024
X4.4094Y-4.0059
X5.2165Y-3.3071
T3
X3.8588Y-3.2111
X4.6559Y-3.8783
X5.7087Y-3.6319
T4
X5.2461Y-2.7142
X5.2461Y-3.0142
T5
X3.6024Y-4.8819
X4.1929Y-4.8819
X4.3909Y-3.7433
X4.4409Y-3.5433
X4.4909Y-3.7433
X4.5409Y-3.5433
X4.5909Y-3.7433
X4.6409Y-3.5433
X4.6909Y-3.7433
X4.7409Y-3.5433
X4.7909Y-3.7433
X4.8409Y-3.5433
X4.8909Y-3.7433
X4.9409Y-3.5433
X4.9909Y-3.7433
X5.0409Y-3.5433
X5.0909Y-3.7433
X5.5118Y-2.9331
X5.5118Y-3.5236
T6
X3.5976Y-4.3898
X3.5976Y-4.626
X3.6619Y-3.878
X3.8588Y-2.7165
X3.9572Y-3.878
X4.154Y-2.7165
X4.1976Y-4.3898
X4.1976Y-4.626
X4.4047Y-4.1535
X4.4783Y-2.5839
X4.4783Y-3.1839
X4.7539Y-2.574
X4.7539Y-3.174
X4.8228Y-4.5477
X4.8228Y-4.843
X5.0047Y-4.1535
X5.0394Y-2.574
X5.0394Y-3.174
X5.5118Y-3.7551
X5.5118Y-4.3551
X5.8661Y-3.0315
X6.1614Y-3.0315
T7
X5.9864Y-3.7978
X5.9864Y-3.9978
T8
X5.9547Y-4.5472
X6.1398Y-4.4291
T9
X5.9547Y-4.311
T2
G00X3.5236Y-3.2677
M15
G01X3.5236Y-3.3071
M16
G05
G00X3.7402Y-3.0906
M15
G01X3.7008Y-3.0906
M16
G05
G00X3.7008Y-3.4843
M15
G01X3.7402Y-3.4843
M16
G05
M30
