%TF.GenerationSoftware,KiCad,Pcbnew,8.0.2*%
%TF.CreationDate,2024-06-05T21:35:59-04:00*%
%TF.ProjectId,pcb,7063622e-6b69-4636-9164-5f7063625858,rev?*%
%TF.SameCoordinates,Original*%
%TF.FileFunction,Drillmap*%
%TF.FilePolarity,Positive*%
%FSLAX45Y45*%
G04 Gerber Fmt 4.5, Leading zero omitted, Abs format (unit mm)*
G04 Created by KiCad (PCBNEW 8.0.2) date 2024-06-05 21:35:59*
%MOMM*%
%LPD*%
G01*
G04 APERTURE LIST*
%ADD10C,0.050000*%
%ADD11C,0.120000*%
%ADD12C,0.200000*%
G04 APERTURE END LIST*
D10*
X16250000Y-5900000D02*
X16250000Y-12900000D01*
X8980278Y-6200000D02*
G75*
G02*
X8619722Y-6200000I-180278J0D01*
G01*
X8619722Y-6200000D02*
G75*
G02*
X8980278Y-6200000I180278J0D01*
G01*
X16180278Y-12650000D02*
G75*
G02*
X15819722Y-12650000I-180278J0D01*
G01*
X15819722Y-12650000D02*
G75*
G02*
X16180278Y-12650000I180278J0D01*
G01*
X8500000Y-12900000D02*
X8500000Y-9000000D01*
X8500000Y-5900000D02*
X16250000Y-5900000D01*
X16250000Y-12900000D02*
X8500000Y-12900000D01*
X16180278Y-6169722D02*
G75*
G02*
X15819722Y-6169722I-180278J0D01*
G01*
X15819722Y-6169722D02*
G75*
G02*
X16180278Y-6169722I180278J0D01*
G01*
X8500000Y-7700000D02*
X8500000Y-5900000D01*
X8930278Y-12650000D02*
G75*
G02*
X8569722Y-12650000I-180278J0D01*
G01*
X8569722Y-12650000D02*
G75*
G02*
X8930278Y-12650000I180278J0D01*
G01*
D11*
X8500000Y-8130000D02*
X8500000Y-7700000D01*
X8500000Y-8570000D02*
X8500000Y-9000000D01*
X8600000Y-8130000D02*
X8500000Y-8130000D01*
X8600000Y-8570000D02*
X8500000Y-8570000D01*
X8640000Y-8530000D02*
X8640000Y-8170000D01*
X8600000Y-8130000D02*
G75*
G02*
X8640000Y-8170000I0J-40000D01*
G01*
X8640000Y-8530000D02*
G75*
G02*
X8600000Y-8570000I-40000J0D01*
G01*
D12*
D11*
X8640000Y-7790000D02*
X8760000Y-7910000D01*
X8760000Y-7790000D02*
X8640000Y-7910000D01*
X8640000Y-8790000D02*
X8760000Y-8910000D01*
X8760000Y-8790000D02*
X8640000Y-8910000D01*
X8890000Y-7790000D02*
X9010000Y-7910000D01*
X9010000Y-7790000D02*
X8890000Y-7910000D01*
X8890000Y-8790000D02*
X9010000Y-8910000D01*
X9010000Y-8790000D02*
X8890000Y-8910000D01*
X9390000Y-8290000D02*
X9510000Y-8410000D01*
X9510000Y-8290000D02*
X9390000Y-8410000D01*
D12*
X8754777Y-13213984D02*
X8754777Y-13013984D01*
X8754777Y-13013984D02*
X8802396Y-13013984D01*
X8802396Y-13013984D02*
X8830967Y-13023508D01*
X8830967Y-13023508D02*
X8850015Y-13042555D01*
X8850015Y-13042555D02*
X8859539Y-13061603D01*
X8859539Y-13061603D02*
X8869063Y-13099698D01*
X8869063Y-13099698D02*
X8869063Y-13128269D01*
X8869063Y-13128269D02*
X8859539Y-13166365D01*
X8859539Y-13166365D02*
X8850015Y-13185412D01*
X8850015Y-13185412D02*
X8830967Y-13204460D01*
X8830967Y-13204460D02*
X8802396Y-13213984D01*
X8802396Y-13213984D02*
X8754777Y-13213984D01*
X8954777Y-13213984D02*
X8954777Y-13080650D01*
X8954777Y-13118746D02*
X8964301Y-13099698D01*
X8964301Y-13099698D02*
X8973824Y-13090174D01*
X8973824Y-13090174D02*
X8992872Y-13080650D01*
X8992872Y-13080650D02*
X9011920Y-13080650D01*
X9078586Y-13213984D02*
X9078586Y-13080650D01*
X9078586Y-13013984D02*
X9069063Y-13023508D01*
X9069063Y-13023508D02*
X9078586Y-13033031D01*
X9078586Y-13033031D02*
X9088110Y-13023508D01*
X9088110Y-13023508D02*
X9078586Y-13013984D01*
X9078586Y-13013984D02*
X9078586Y-13033031D01*
X9202396Y-13213984D02*
X9183348Y-13204460D01*
X9183348Y-13204460D02*
X9173824Y-13185412D01*
X9173824Y-13185412D02*
X9173824Y-13013984D01*
X9307158Y-13213984D02*
X9288110Y-13204460D01*
X9288110Y-13204460D02*
X9278586Y-13185412D01*
X9278586Y-13185412D02*
X9278586Y-13013984D01*
X9535729Y-13213984D02*
X9535729Y-13013984D01*
X9535729Y-13013984D02*
X9602396Y-13156841D01*
X9602396Y-13156841D02*
X9669063Y-13013984D01*
X9669063Y-13013984D02*
X9669063Y-13213984D01*
X9850015Y-13213984D02*
X9850015Y-13109222D01*
X9850015Y-13109222D02*
X9840491Y-13090174D01*
X9840491Y-13090174D02*
X9821444Y-13080650D01*
X9821444Y-13080650D02*
X9783348Y-13080650D01*
X9783348Y-13080650D02*
X9764301Y-13090174D01*
X9850015Y-13204460D02*
X9830967Y-13213984D01*
X9830967Y-13213984D02*
X9783348Y-13213984D01*
X9783348Y-13213984D02*
X9764301Y-13204460D01*
X9764301Y-13204460D02*
X9754777Y-13185412D01*
X9754777Y-13185412D02*
X9754777Y-13166365D01*
X9754777Y-13166365D02*
X9764301Y-13147317D01*
X9764301Y-13147317D02*
X9783348Y-13137793D01*
X9783348Y-13137793D02*
X9830967Y-13137793D01*
X9830967Y-13137793D02*
X9850015Y-13128269D01*
X9945253Y-13080650D02*
X9945253Y-13280650D01*
X9945253Y-13090174D02*
X9964301Y-13080650D01*
X9964301Y-13080650D02*
X10002396Y-13080650D01*
X10002396Y-13080650D02*
X10021444Y-13090174D01*
X10021444Y-13090174D02*
X10030967Y-13099698D01*
X10030967Y-13099698D02*
X10040491Y-13118746D01*
X10040491Y-13118746D02*
X10040491Y-13175888D01*
X10040491Y-13175888D02*
X10030967Y-13194936D01*
X10030967Y-13194936D02*
X10021444Y-13204460D01*
X10021444Y-13204460D02*
X10002396Y-13213984D01*
X10002396Y-13213984D02*
X9964301Y-13213984D01*
X9964301Y-13213984D02*
X9945253Y-13204460D01*
X10126205Y-13194936D02*
X10135729Y-13204460D01*
X10135729Y-13204460D02*
X10126205Y-13213984D01*
X10126205Y-13213984D02*
X10116682Y-13204460D01*
X10116682Y-13204460D02*
X10126205Y-13194936D01*
X10126205Y-13194936D02*
X10126205Y-13213984D01*
X10126205Y-13090174D02*
X10135729Y-13099698D01*
X10135729Y-13099698D02*
X10126205Y-13109222D01*
X10126205Y-13109222D02*
X10116682Y-13099698D01*
X10116682Y-13099698D02*
X10126205Y-13090174D01*
X10126205Y-13090174D02*
X10126205Y-13109222D01*
D11*
X8374000Y-13482500D02*
X8494000Y-13602500D01*
X8494000Y-13482500D02*
X8374000Y-13602500D01*
D12*
X8859539Y-13633984D02*
X8745253Y-13633984D01*
X8802396Y-13633984D02*
X8802396Y-13433984D01*
X8802396Y-13433984D02*
X8783348Y-13462555D01*
X8783348Y-13462555D02*
X8764301Y-13481603D01*
X8764301Y-13481603D02*
X8745253Y-13491127D01*
X8945253Y-13614936D02*
X8954777Y-13624460D01*
X8954777Y-13624460D02*
X8945253Y-13633984D01*
X8945253Y-13633984D02*
X8935729Y-13624460D01*
X8935729Y-13624460D02*
X8945253Y-13614936D01*
X8945253Y-13614936D02*
X8945253Y-13633984D01*
X9030967Y-13453031D02*
X9040491Y-13443508D01*
X9040491Y-13443508D02*
X9059539Y-13433984D01*
X9059539Y-13433984D02*
X9107158Y-13433984D01*
X9107158Y-13433984D02*
X9126205Y-13443508D01*
X9126205Y-13443508D02*
X9135729Y-13453031D01*
X9135729Y-13453031D02*
X9145253Y-13472079D01*
X9145253Y-13472079D02*
X9145253Y-13491127D01*
X9145253Y-13491127D02*
X9135729Y-13519698D01*
X9135729Y-13519698D02*
X9021444Y-13633984D01*
X9021444Y-13633984D02*
X9145253Y-13633984D01*
X9269063Y-13433984D02*
X9288110Y-13433984D01*
X9288110Y-13433984D02*
X9307158Y-13443508D01*
X9307158Y-13443508D02*
X9316682Y-13453031D01*
X9316682Y-13453031D02*
X9326205Y-13472079D01*
X9326205Y-13472079D02*
X9335729Y-13510174D01*
X9335729Y-13510174D02*
X9335729Y-13557793D01*
X9335729Y-13557793D02*
X9326205Y-13595888D01*
X9326205Y-13595888D02*
X9316682Y-13614936D01*
X9316682Y-13614936D02*
X9307158Y-13624460D01*
X9307158Y-13624460D02*
X9288110Y-13633984D01*
X9288110Y-13633984D02*
X9269063Y-13633984D01*
X9269063Y-13633984D02*
X9250015Y-13624460D01*
X9250015Y-13624460D02*
X9240491Y-13614936D01*
X9240491Y-13614936D02*
X9230967Y-13595888D01*
X9230967Y-13595888D02*
X9221444Y-13557793D01*
X9221444Y-13557793D02*
X9221444Y-13510174D01*
X9221444Y-13510174D02*
X9230967Y-13472079D01*
X9230967Y-13472079D02*
X9240491Y-13453031D01*
X9240491Y-13453031D02*
X9250015Y-13443508D01*
X9250015Y-13443508D02*
X9269063Y-13433984D01*
X9459539Y-13433984D02*
X9478586Y-13433984D01*
X9478586Y-13433984D02*
X9497634Y-13443508D01*
X9497634Y-13443508D02*
X9507158Y-13453031D01*
X9507158Y-13453031D02*
X9516682Y-13472079D01*
X9516682Y-13472079D02*
X9526205Y-13510174D01*
X9526205Y-13510174D02*
X9526205Y-13557793D01*
X9526205Y-13557793D02*
X9516682Y-13595888D01*
X9516682Y-13595888D02*
X9507158Y-13614936D01*
X9507158Y-13614936D02*
X9497634Y-13624460D01*
X9497634Y-13624460D02*
X9478586Y-13633984D01*
X9478586Y-13633984D02*
X9459539Y-13633984D01*
X9459539Y-13633984D02*
X9440491Y-13624460D01*
X9440491Y-13624460D02*
X9430967Y-13614936D01*
X9430967Y-13614936D02*
X9421444Y-13595888D01*
X9421444Y-13595888D02*
X9411920Y-13557793D01*
X9411920Y-13557793D02*
X9411920Y-13510174D01*
X9411920Y-13510174D02*
X9421444Y-13472079D01*
X9421444Y-13472079D02*
X9430967Y-13453031D01*
X9430967Y-13453031D02*
X9440491Y-13443508D01*
X9440491Y-13443508D02*
X9459539Y-13433984D01*
X9611920Y-13633984D02*
X9611920Y-13500650D01*
X9611920Y-13519698D02*
X9621444Y-13510174D01*
X9621444Y-13510174D02*
X9640491Y-13500650D01*
X9640491Y-13500650D02*
X9669063Y-13500650D01*
X9669063Y-13500650D02*
X9688110Y-13510174D01*
X9688110Y-13510174D02*
X9697634Y-13529222D01*
X9697634Y-13529222D02*
X9697634Y-13633984D01*
X9697634Y-13529222D02*
X9707158Y-13510174D01*
X9707158Y-13510174D02*
X9726205Y-13500650D01*
X9726205Y-13500650D02*
X9754777Y-13500650D01*
X9754777Y-13500650D02*
X9773825Y-13510174D01*
X9773825Y-13510174D02*
X9783348Y-13529222D01*
X9783348Y-13529222D02*
X9783348Y-13633984D01*
X9878586Y-13633984D02*
X9878586Y-13500650D01*
X9878586Y-13519698D02*
X9888110Y-13510174D01*
X9888110Y-13510174D02*
X9907158Y-13500650D01*
X9907158Y-13500650D02*
X9935729Y-13500650D01*
X9935729Y-13500650D02*
X9954777Y-13510174D01*
X9954777Y-13510174D02*
X9964301Y-13529222D01*
X9964301Y-13529222D02*
X9964301Y-13633984D01*
X9964301Y-13529222D02*
X9973825Y-13510174D01*
X9973825Y-13510174D02*
X9992872Y-13500650D01*
X9992872Y-13500650D02*
X10021444Y-13500650D01*
X10021444Y-13500650D02*
X10040491Y-13510174D01*
X10040491Y-13510174D02*
X10050015Y-13529222D01*
X10050015Y-13529222D02*
X10050015Y-13633984D01*
X10440491Y-13424460D02*
X10269063Y-13681603D01*
X10697634Y-13433984D02*
X10716682Y-13433984D01*
X10716682Y-13433984D02*
X10735729Y-13443508D01*
X10735729Y-13443508D02*
X10745253Y-13453031D01*
X10745253Y-13453031D02*
X10754777Y-13472079D01*
X10754777Y-13472079D02*
X10764301Y-13510174D01*
X10764301Y-13510174D02*
X10764301Y-13557793D01*
X10764301Y-13557793D02*
X10754777Y-13595888D01*
X10754777Y-13595888D02*
X10745253Y-13614936D01*
X10745253Y-13614936D02*
X10735729Y-13624460D01*
X10735729Y-13624460D02*
X10716682Y-13633984D01*
X10716682Y-13633984D02*
X10697634Y-13633984D01*
X10697634Y-13633984D02*
X10678587Y-13624460D01*
X10678587Y-13624460D02*
X10669063Y-13614936D01*
X10669063Y-13614936D02*
X10659539Y-13595888D01*
X10659539Y-13595888D02*
X10650015Y-13557793D01*
X10650015Y-13557793D02*
X10650015Y-13510174D01*
X10650015Y-13510174D02*
X10659539Y-13472079D01*
X10659539Y-13472079D02*
X10669063Y-13453031D01*
X10669063Y-13453031D02*
X10678587Y-13443508D01*
X10678587Y-13443508D02*
X10697634Y-13433984D01*
X10850015Y-13614936D02*
X10859539Y-13624460D01*
X10859539Y-13624460D02*
X10850015Y-13633984D01*
X10850015Y-13633984D02*
X10840491Y-13624460D01*
X10840491Y-13624460D02*
X10850015Y-13614936D01*
X10850015Y-13614936D02*
X10850015Y-13633984D01*
X10983348Y-13433984D02*
X11002396Y-13433984D01*
X11002396Y-13433984D02*
X11021444Y-13443508D01*
X11021444Y-13443508D02*
X11030968Y-13453031D01*
X11030968Y-13453031D02*
X11040491Y-13472079D01*
X11040491Y-13472079D02*
X11050015Y-13510174D01*
X11050015Y-13510174D02*
X11050015Y-13557793D01*
X11050015Y-13557793D02*
X11040491Y-13595888D01*
X11040491Y-13595888D02*
X11030968Y-13614936D01*
X11030968Y-13614936D02*
X11021444Y-13624460D01*
X11021444Y-13624460D02*
X11002396Y-13633984D01*
X11002396Y-13633984D02*
X10983348Y-13633984D01*
X10983348Y-13633984D02*
X10964301Y-13624460D01*
X10964301Y-13624460D02*
X10954777Y-13614936D01*
X10954777Y-13614936D02*
X10945253Y-13595888D01*
X10945253Y-13595888D02*
X10935729Y-13557793D01*
X10935729Y-13557793D02*
X10935729Y-13510174D01*
X10935729Y-13510174D02*
X10945253Y-13472079D01*
X10945253Y-13472079D02*
X10954777Y-13453031D01*
X10954777Y-13453031D02*
X10964301Y-13443508D01*
X10964301Y-13443508D02*
X10983348Y-13433984D01*
X11221444Y-13500650D02*
X11221444Y-13633984D01*
X11173825Y-13424460D02*
X11126206Y-13567317D01*
X11126206Y-13567317D02*
X11250015Y-13567317D01*
X11307158Y-13433984D02*
X11440491Y-13433984D01*
X11440491Y-13433984D02*
X11354777Y-13633984D01*
X11507158Y-13453031D02*
X11516682Y-13443508D01*
X11516682Y-13443508D02*
X11535729Y-13433984D01*
X11535729Y-13433984D02*
X11583348Y-13433984D01*
X11583348Y-13433984D02*
X11602396Y-13443508D01*
X11602396Y-13443508D02*
X11611920Y-13453031D01*
X11611920Y-13453031D02*
X11621444Y-13472079D01*
X11621444Y-13472079D02*
X11621444Y-13491127D01*
X11621444Y-13491127D02*
X11611920Y-13519698D01*
X11611920Y-13519698D02*
X11497634Y-13633984D01*
X11497634Y-13633984D02*
X11621444Y-13633984D01*
X11697634Y-13433984D02*
X11697634Y-13472079D01*
X11773825Y-13433984D02*
X11773825Y-13472079D01*
X12069063Y-13710174D02*
X12059539Y-13700650D01*
X12059539Y-13700650D02*
X12040491Y-13672079D01*
X12040491Y-13672079D02*
X12030968Y-13653031D01*
X12030968Y-13653031D02*
X12021444Y-13624460D01*
X12021444Y-13624460D02*
X12011920Y-13576841D01*
X12011920Y-13576841D02*
X12011920Y-13538746D01*
X12011920Y-13538746D02*
X12021444Y-13491127D01*
X12021444Y-13491127D02*
X12030968Y-13462555D01*
X12030968Y-13462555D02*
X12040491Y-13443508D01*
X12040491Y-13443508D02*
X12059539Y-13414936D01*
X12059539Y-13414936D02*
X12069063Y-13405412D01*
X12240491Y-13433984D02*
X12145253Y-13433984D01*
X12145253Y-13433984D02*
X12135729Y-13529222D01*
X12135729Y-13529222D02*
X12145253Y-13519698D01*
X12145253Y-13519698D02*
X12164301Y-13510174D01*
X12164301Y-13510174D02*
X12211920Y-13510174D01*
X12211920Y-13510174D02*
X12230968Y-13519698D01*
X12230968Y-13519698D02*
X12240491Y-13529222D01*
X12240491Y-13529222D02*
X12250015Y-13548269D01*
X12250015Y-13548269D02*
X12250015Y-13595888D01*
X12250015Y-13595888D02*
X12240491Y-13614936D01*
X12240491Y-13614936D02*
X12230968Y-13624460D01*
X12230968Y-13624460D02*
X12211920Y-13633984D01*
X12211920Y-13633984D02*
X12164301Y-13633984D01*
X12164301Y-13633984D02*
X12145253Y-13624460D01*
X12145253Y-13624460D02*
X12135729Y-13614936D01*
X12488110Y-13633984D02*
X12488110Y-13433984D01*
X12573825Y-13633984D02*
X12573825Y-13529222D01*
X12573825Y-13529222D02*
X12564301Y-13510174D01*
X12564301Y-13510174D02*
X12545253Y-13500650D01*
X12545253Y-13500650D02*
X12516682Y-13500650D01*
X12516682Y-13500650D02*
X12497634Y-13510174D01*
X12497634Y-13510174D02*
X12488110Y-13519698D01*
X12697634Y-13633984D02*
X12678587Y-13624460D01*
X12678587Y-13624460D02*
X12669063Y-13614936D01*
X12669063Y-13614936D02*
X12659539Y-13595888D01*
X12659539Y-13595888D02*
X12659539Y-13538746D01*
X12659539Y-13538746D02*
X12669063Y-13519698D01*
X12669063Y-13519698D02*
X12678587Y-13510174D01*
X12678587Y-13510174D02*
X12697634Y-13500650D01*
X12697634Y-13500650D02*
X12726206Y-13500650D01*
X12726206Y-13500650D02*
X12745253Y-13510174D01*
X12745253Y-13510174D02*
X12754777Y-13519698D01*
X12754777Y-13519698D02*
X12764301Y-13538746D01*
X12764301Y-13538746D02*
X12764301Y-13595888D01*
X12764301Y-13595888D02*
X12754777Y-13614936D01*
X12754777Y-13614936D02*
X12745253Y-13624460D01*
X12745253Y-13624460D02*
X12726206Y-13633984D01*
X12726206Y-13633984D02*
X12697634Y-13633984D01*
X12878587Y-13633984D02*
X12859539Y-13624460D01*
X12859539Y-13624460D02*
X12850015Y-13605412D01*
X12850015Y-13605412D02*
X12850015Y-13433984D01*
X13030968Y-13624460D02*
X13011920Y-13633984D01*
X13011920Y-13633984D02*
X12973825Y-13633984D01*
X12973825Y-13633984D02*
X12954777Y-13624460D01*
X12954777Y-13624460D02*
X12945253Y-13605412D01*
X12945253Y-13605412D02*
X12945253Y-13529222D01*
X12945253Y-13529222D02*
X12954777Y-13510174D01*
X12954777Y-13510174D02*
X12973825Y-13500650D01*
X12973825Y-13500650D02*
X13011920Y-13500650D01*
X13011920Y-13500650D02*
X13030968Y-13510174D01*
X13030968Y-13510174D02*
X13040491Y-13529222D01*
X13040491Y-13529222D02*
X13040491Y-13548269D01*
X13040491Y-13548269D02*
X12945253Y-13567317D01*
X13116682Y-13624460D02*
X13135730Y-13633984D01*
X13135730Y-13633984D02*
X13173825Y-13633984D01*
X13173825Y-13633984D02*
X13192872Y-13624460D01*
X13192872Y-13624460D02*
X13202396Y-13605412D01*
X13202396Y-13605412D02*
X13202396Y-13595888D01*
X13202396Y-13595888D02*
X13192872Y-13576841D01*
X13192872Y-13576841D02*
X13173825Y-13567317D01*
X13173825Y-13567317D02*
X13145253Y-13567317D01*
X13145253Y-13567317D02*
X13126206Y-13557793D01*
X13126206Y-13557793D02*
X13116682Y-13538746D01*
X13116682Y-13538746D02*
X13116682Y-13529222D01*
X13116682Y-13529222D02*
X13126206Y-13510174D01*
X13126206Y-13510174D02*
X13145253Y-13500650D01*
X13145253Y-13500650D02*
X13173825Y-13500650D01*
X13173825Y-13500650D02*
X13192872Y-13510174D01*
X13269063Y-13710174D02*
X13278587Y-13700650D01*
X13278587Y-13700650D02*
X13297634Y-13672079D01*
X13297634Y-13672079D02*
X13307158Y-13653031D01*
X13307158Y-13653031D02*
X13316682Y-13624460D01*
X13316682Y-13624460D02*
X13326206Y-13576841D01*
X13326206Y-13576841D02*
X13326206Y-13538746D01*
X13326206Y-13538746D02*
X13316682Y-13491127D01*
X13316682Y-13491127D02*
X13307158Y-13462555D01*
X13307158Y-13462555D02*
X13297634Y-13443508D01*
X13297634Y-13443508D02*
X13278587Y-13414936D01*
X13278587Y-13414936D02*
X13269063Y-13405412D01*
X13630968Y-13710174D02*
X13621444Y-13700650D01*
X13621444Y-13700650D02*
X13602396Y-13672079D01*
X13602396Y-13672079D02*
X13592872Y-13653031D01*
X13592872Y-13653031D02*
X13583349Y-13624460D01*
X13583349Y-13624460D02*
X13573825Y-13576841D01*
X13573825Y-13576841D02*
X13573825Y-13538746D01*
X13573825Y-13538746D02*
X13583349Y-13491127D01*
X13583349Y-13491127D02*
X13592872Y-13462555D01*
X13592872Y-13462555D02*
X13602396Y-13443508D01*
X13602396Y-13443508D02*
X13621444Y-13414936D01*
X13621444Y-13414936D02*
X13630968Y-13405412D01*
X13707158Y-13500650D02*
X13707158Y-13633984D01*
X13707158Y-13519698D02*
X13716682Y-13510174D01*
X13716682Y-13510174D02*
X13735730Y-13500650D01*
X13735730Y-13500650D02*
X13764301Y-13500650D01*
X13764301Y-13500650D02*
X13783349Y-13510174D01*
X13783349Y-13510174D02*
X13792872Y-13529222D01*
X13792872Y-13529222D02*
X13792872Y-13633984D01*
X13916682Y-13633984D02*
X13897634Y-13624460D01*
X13897634Y-13624460D02*
X13888111Y-13614936D01*
X13888111Y-13614936D02*
X13878587Y-13595888D01*
X13878587Y-13595888D02*
X13878587Y-13538746D01*
X13878587Y-13538746D02*
X13888111Y-13519698D01*
X13888111Y-13519698D02*
X13897634Y-13510174D01*
X13897634Y-13510174D02*
X13916682Y-13500650D01*
X13916682Y-13500650D02*
X13945253Y-13500650D01*
X13945253Y-13500650D02*
X13964301Y-13510174D01*
X13964301Y-13510174D02*
X13973825Y-13519698D01*
X13973825Y-13519698D02*
X13983349Y-13538746D01*
X13983349Y-13538746D02*
X13983349Y-13595888D01*
X13983349Y-13595888D02*
X13973825Y-13614936D01*
X13973825Y-13614936D02*
X13964301Y-13624460D01*
X13964301Y-13624460D02*
X13945253Y-13633984D01*
X13945253Y-13633984D02*
X13916682Y-13633984D01*
X14040492Y-13500650D02*
X14116682Y-13500650D01*
X14069063Y-13433984D02*
X14069063Y-13605412D01*
X14069063Y-13605412D02*
X14078587Y-13624460D01*
X14078587Y-13624460D02*
X14097634Y-13633984D01*
X14097634Y-13633984D02*
X14116682Y-13633984D01*
X14335730Y-13500650D02*
X14335730Y-13700650D01*
X14335730Y-13510174D02*
X14354777Y-13500650D01*
X14354777Y-13500650D02*
X14392873Y-13500650D01*
X14392873Y-13500650D02*
X14411920Y-13510174D01*
X14411920Y-13510174D02*
X14421444Y-13519698D01*
X14421444Y-13519698D02*
X14430968Y-13538746D01*
X14430968Y-13538746D02*
X14430968Y-13595888D01*
X14430968Y-13595888D02*
X14421444Y-13614936D01*
X14421444Y-13614936D02*
X14411920Y-13624460D01*
X14411920Y-13624460D02*
X14392873Y-13633984D01*
X14392873Y-13633984D02*
X14354777Y-13633984D01*
X14354777Y-13633984D02*
X14335730Y-13624460D01*
X14545253Y-13633984D02*
X14526206Y-13624460D01*
X14526206Y-13624460D02*
X14516682Y-13605412D01*
X14516682Y-13605412D02*
X14516682Y-13433984D01*
X14707158Y-13633984D02*
X14707158Y-13529222D01*
X14707158Y-13529222D02*
X14697634Y-13510174D01*
X14697634Y-13510174D02*
X14678587Y-13500650D01*
X14678587Y-13500650D02*
X14640492Y-13500650D01*
X14640492Y-13500650D02*
X14621444Y-13510174D01*
X14707158Y-13624460D02*
X14688111Y-13633984D01*
X14688111Y-13633984D02*
X14640492Y-13633984D01*
X14640492Y-13633984D02*
X14621444Y-13624460D01*
X14621444Y-13624460D02*
X14611920Y-13605412D01*
X14611920Y-13605412D02*
X14611920Y-13586365D01*
X14611920Y-13586365D02*
X14621444Y-13567317D01*
X14621444Y-13567317D02*
X14640492Y-13557793D01*
X14640492Y-13557793D02*
X14688111Y-13557793D01*
X14688111Y-13557793D02*
X14707158Y-13548269D01*
X14773825Y-13500650D02*
X14850015Y-13500650D01*
X14802396Y-13433984D02*
X14802396Y-13605412D01*
X14802396Y-13605412D02*
X14811920Y-13624460D01*
X14811920Y-13624460D02*
X14830968Y-13633984D01*
X14830968Y-13633984D02*
X14850015Y-13633984D01*
X14992873Y-13624460D02*
X14973825Y-13633984D01*
X14973825Y-13633984D02*
X14935730Y-13633984D01*
X14935730Y-13633984D02*
X14916682Y-13624460D01*
X14916682Y-13624460D02*
X14907158Y-13605412D01*
X14907158Y-13605412D02*
X14907158Y-13529222D01*
X14907158Y-13529222D02*
X14916682Y-13510174D01*
X14916682Y-13510174D02*
X14935730Y-13500650D01*
X14935730Y-13500650D02*
X14973825Y-13500650D01*
X14973825Y-13500650D02*
X14992873Y-13510174D01*
X14992873Y-13510174D02*
X15002396Y-13529222D01*
X15002396Y-13529222D02*
X15002396Y-13548269D01*
X15002396Y-13548269D02*
X14907158Y-13567317D01*
X15173825Y-13633984D02*
X15173825Y-13433984D01*
X15173825Y-13624460D02*
X15154777Y-13633984D01*
X15154777Y-13633984D02*
X15116682Y-13633984D01*
X15116682Y-13633984D02*
X15097634Y-13624460D01*
X15097634Y-13624460D02*
X15088111Y-13614936D01*
X15088111Y-13614936D02*
X15078587Y-13595888D01*
X15078587Y-13595888D02*
X15078587Y-13538746D01*
X15078587Y-13538746D02*
X15088111Y-13519698D01*
X15088111Y-13519698D02*
X15097634Y-13510174D01*
X15097634Y-13510174D02*
X15116682Y-13500650D01*
X15116682Y-13500650D02*
X15154777Y-13500650D01*
X15154777Y-13500650D02*
X15173825Y-13510174D01*
X15250015Y-13710174D02*
X15259539Y-13700650D01*
X15259539Y-13700650D02*
X15278587Y-13672079D01*
X15278587Y-13672079D02*
X15288111Y-13653031D01*
X15288111Y-13653031D02*
X15297634Y-13624460D01*
X15297634Y-13624460D02*
X15307158Y-13576841D01*
X15307158Y-13576841D02*
X15307158Y-13538746D01*
X15307158Y-13538746D02*
X15297634Y-13491127D01*
X15297634Y-13491127D02*
X15288111Y-13462555D01*
X15288111Y-13462555D02*
X15278587Y-13443508D01*
X15278587Y-13443508D02*
X15259539Y-13414936D01*
X15259539Y-13414936D02*
X15250015Y-13405412D01*
M02*
