%TF.GenerationSoftware,KiCad,Pcbnew,8.0.2*%
%TF.CreationDate,2024-06-05T21:35:29-04:00*%
%TF.ProjectId,pcb,7063622e-6b69-4636-9164-5f7063625858,rev?*%
%TF.SameCoordinates,Original*%
%TF.FileFunction,Profile,NP*%
%FSLAX46Y46*%
G04 Gerber Fmt 4.6, Leading zero omitted, Abs format (unit mm)*
G04 Created by KiCad (PCBNEW 8.0.2) date 2024-06-05 21:35:29*
%MOMM*%
%LPD*%
G01*
G04 APERTURE LIST*
%TA.AperFunction,Profile*%
%ADD10C,0.050000*%
%TD*%
%TA.AperFunction,Profile*%
%ADD11C,0.120000*%
%TD*%
G04 APERTURE END LIST*
D10*
X162500000Y-59000000D02*
X162500000Y-129000000D01*
X89802776Y-62000000D02*
G75*
G02*
X86197224Y-62000000I-1802776J0D01*
G01*
X86197224Y-62000000D02*
G75*
G02*
X89802776Y-62000000I1802776J0D01*
G01*
X161802776Y-126500000D02*
G75*
G02*
X158197224Y-126500000I-1802776J0D01*
G01*
X158197224Y-126500000D02*
G75*
G02*
X161802776Y-126500000I1802776J0D01*
G01*
X85000000Y-129000000D02*
X85000000Y-90000000D01*
X85000000Y-59000000D02*
X162500000Y-59000000D01*
X162500000Y-129000000D02*
X85000000Y-129000000D01*
X161802776Y-61697225D02*
G75*
G02*
X158197224Y-61697225I-1802776J0D01*
G01*
X158197224Y-61697225D02*
G75*
G02*
X161802776Y-61697225I1802776J0D01*
G01*
X85000000Y-77000000D02*
X85000000Y-59000000D01*
X89302776Y-126500000D02*
G75*
G02*
X85697224Y-126500000I-1802776J0D01*
G01*
X85697224Y-126500000D02*
G75*
G02*
X89302776Y-126500000I1802776J0D01*
G01*
D11*
%TO.C,J2*%
X85000000Y-81300000D02*
X85000000Y-77000000D01*
X85000000Y-85700000D02*
X85000000Y-90000000D01*
X86000000Y-81300000D02*
X85000000Y-81300000D01*
X86000000Y-85700000D02*
X85000000Y-85700000D01*
X86400000Y-85300000D02*
X86400000Y-81700000D01*
X86000000Y-81300000D02*
G75*
G02*
X86400000Y-81700000I-2J-400002D01*
G01*
X86400000Y-85300000D02*
G75*
G02*
X86000000Y-85700000I-400000J0D01*
G01*
%TD*%
M02*
