%TF.GenerationSoftware,KiCad,Pcbnew,8.0.2*%
%TF.CreationDate,2024-06-05T21:35:29-04:00*%
%TF.ProjectId,pcb,7063622e-6b69-4636-9164-5f7063625858,rev?*%
%TF.SameCoordinates,Original*%
%TF.FileFunction,Soldermask,Bot*%
%TF.FilePolarity,Negative*%
%FSLAX46Y46*%
G04 Gerber Fmt 4.6, Leading zero omitted, Abs format (unit mm)*
G04 Created by KiCad (PCBNEW 8.0.2) date 2024-06-05 21:35:29*
%MOMM*%
%LPD*%
G01*
G04 APERTURE LIST*
%ADD10C,2.400000*%
%ADD11O,2.400000X2.400000*%
%ADD12C,1.200000*%
%ADD13O,2.200000X1.200000*%
%ADD14O,1.200000X2.200000*%
%ADD15R,2.400000X2.400000*%
%ADD16R,1.600000X1.600000*%
%ADD17O,1.600000X1.600000*%
%ADD18R,2.000000X2.000000*%
%ADD19O,2.000000X2.000000*%
%ADD20R,1.800000X1.800000*%
%ADD21O,1.800000X1.800000*%
%ADD22R,4.400000X4.400000*%
%ADD23C,4.300000*%
%ADD24R,2.600000X2.600000*%
%ADD25C,2.600000*%
G04 APERTURE END LIST*
D10*
%TO.C,R6*%
X113750000Y-80870000D03*
D11*
X113750000Y-65630000D03*
%TD*%
D10*
%TO.C,R1*%
X120750000Y-80620000D03*
D11*
X120750000Y-65380000D03*
%TD*%
D10*
%TO.C,R5*%
X140000000Y-95380000D03*
D11*
X140000000Y-110620000D03*
%TD*%
D12*
%TO.C,J2*%
X89500000Y-78500000D03*
X87000000Y-78500000D03*
X94500000Y-83500000D03*
X89500000Y-88500000D03*
X87000000Y-88500000D03*
D13*
X94500000Y-78500000D03*
D14*
X89500000Y-83500000D03*
D13*
X94500000Y-88500000D03*
%TD*%
D15*
%TO.C,C7*%
X149000000Y-77000000D03*
D10*
X156500000Y-77000000D03*
%TD*%
D16*
%TO.C,D1*%
X133250000Y-68940000D03*
D17*
X133250000Y-76560000D03*
%TD*%
D15*
%TO.C,C9*%
X100512755Y-98500000D03*
D10*
X93012755Y-98500000D03*
%TD*%
D15*
%TO.C,C6*%
X122500000Y-123012755D03*
D10*
X122500000Y-115512755D03*
%TD*%
D18*
%TO.C,C5*%
X91500000Y-124000000D03*
D19*
X106500000Y-124000000D03*
%TD*%
D20*
%TO.C,U1*%
X111530000Y-95080000D03*
D21*
X112800000Y-90000000D03*
X114070000Y-95080000D03*
X115340000Y-90000000D03*
X116610000Y-95080000D03*
X117880000Y-90000000D03*
X119150000Y-95080000D03*
X120420000Y-90000000D03*
X121690000Y-95080000D03*
X122960000Y-90000000D03*
X124230000Y-95080000D03*
X125500000Y-90000000D03*
X126770000Y-95080000D03*
X128040000Y-90000000D03*
X129310000Y-95080000D03*
%TD*%
D10*
%TO.C,R7*%
X128000000Y-65380000D03*
D11*
X128000000Y-80620000D03*
%TD*%
D10*
%TO.C,R3*%
X91380000Y-111500000D03*
D11*
X106620000Y-111500000D03*
%TD*%
D22*
%TO.C,J1*%
X151250000Y-109500000D03*
D23*
X151250000Y-115500000D03*
X155950000Y-112500000D03*
%TD*%
D15*
%TO.C,C8*%
X105512755Y-69000000D03*
D10*
X98012755Y-69000000D03*
%TD*%
D24*
%TO.C,LS1*%
X152055000Y-101545000D03*
D25*
X152055000Y-96465000D03*
%TD*%
D18*
%TO.C,C10*%
X140000000Y-74500000D03*
D19*
X140000000Y-89500000D03*
%TD*%
D10*
%TO.C,R4*%
X127120000Y-105500000D03*
D11*
X111880000Y-105500000D03*
%TD*%
D10*
%TO.C,R2*%
X91380000Y-117500000D03*
D11*
X106620000Y-117500000D03*
%TD*%
M02*
